<mxfile host="app.diagrams.net" agent="Mozilla/5.0 (Windows NT 10.0; Win64; x64) AppleWebKit/537.36 (KHTML, like Gecko) Chrome/133.0.0.0 Safari/537.36 OPR/118.0.0.0 (Edition Yx GX 03)" version="27.0.9">
  <diagram name="Страница — 1" id="8Ef5CvVU_wm0IzSZvptB">
    <mxGraphModel dx="628" dy="633" grid="1" gridSize="10" guides="1" tooltips="1" connect="1" arrows="1" fold="1" page="1" pageScale="1" pageWidth="827" pageHeight="1169" math="0" shadow="0">
      <root>
        <mxCell id="0" />
        <mxCell id="1" parent="0" />
        <mxCell id="k9w2KrqP_cFV43fhyjE5-12" value="SearchHistory" style="swimlane;fontStyle=0;childLayout=stackLayout;horizontal=1;startSize=26;fillColor=none;horizontalStack=0;resizeParent=1;resizeParentMax=0;resizeLast=0;collapsible=1;marginBottom=0;whiteSpace=wrap;html=1;" parent="1" vertex="1">
          <mxGeometry x="960" y="120" width="140" height="104" as="geometry" />
        </mxCell>
        <mxCell id="k9w2KrqP_cFV43fhyjE5-13" value="session_key: str" style="text;strokeColor=none;fillColor=none;align=left;verticalAlign=top;spacingLeft=4;spacingRight=4;overflow=hidden;rotatable=0;points=[[0,0.5],[1,0.5]];portConstraint=eastwest;whiteSpace=wrap;html=1;" parent="k9w2KrqP_cFV43fhyjE5-12" vertex="1">
          <mxGeometry y="26" width="140" height="26" as="geometry" />
        </mxCell>
        <mxCell id="k9w2KrqP_cFV43fhyjE5-14" value="&lt;span style=&quot;text-align: center;&quot;&gt;city: CityCached&lt;/span&gt;" style="text;strokeColor=none;fillColor=none;align=left;verticalAlign=top;spacingLeft=4;spacingRight=4;overflow=hidden;rotatable=0;points=[[0,0.5],[1,0.5]];portConstraint=eastwest;whiteSpace=wrap;html=1;" parent="k9w2KrqP_cFV43fhyjE5-12" vertex="1">
          <mxGeometry y="52" width="140" height="26" as="geometry" />
        </mxCell>
        <mxCell id="k9w2KrqP_cFV43fhyjE5-15" value="create_at: datetime" style="text;strokeColor=none;fillColor=none;align=left;verticalAlign=top;spacingLeft=4;spacingRight=4;overflow=hidden;rotatable=0;points=[[0,0.5],[1,0.5]];portConstraint=eastwest;whiteSpace=wrap;html=1;" parent="k9w2KrqP_cFV43fhyjE5-12" vertex="1">
          <mxGeometry y="78" width="140" height="26" as="geometry" />
        </mxCell>
        <mxCell id="k9w2KrqP_cFV43fhyjE5-40" style="edgeStyle=orthogonalEdgeStyle;rounded=0;orthogonalLoop=1;jettySize=auto;html=1;entryX=0;entryY=0.5;entryDx=0;entryDy=0;" parent="1" source="k9w2KrqP_cFV43fhyjE5-19" target="k9w2KrqP_cFV43fhyjE5-39" edge="1">
          <mxGeometry relative="1" as="geometry" />
        </mxCell>
        <mxCell id="k9w2KrqP_cFV43fhyjE5-19" value="Эндпоинт autocomplete, делает запрос в openmeteo, получает список подходящих городов, выводит пользователю." style="text;html=1;align=left;verticalAlign=middle;whiteSpace=wrap;rounded=0;" parent="1" vertex="1">
          <mxGeometry x="1165" y="350" width="180" height="85" as="geometry" />
        </mxCell>
        <mxCell id="k9w2KrqP_cFV43fhyjE5-21" value="&lt;strong style=&quot;font-weight: 600; color: rgb(64, 64, 64); font-family: quote-cjk-patch, Inter, system-ui, -apple-system, BlinkMacSystemFont, &amp;quot;Segoe UI&amp;quot;, Roboto, &amp;quot;Noto Sans&amp;quot;, Ubuntu, Cantarell, &amp;quot;Helvetica Neue&amp;quot;, Oxygen, &amp;quot;Open Sans&amp;quot;, sans-serif; font-size: 16.002px; font-style: normal; font-variant-ligatures: normal; font-variant-caps: normal; letter-spacing: normal; orphans: 2; text-align: left; text-indent: 0px; text-transform: none; widows: 2; word-spacing: 0px; -webkit-text-stroke-width: 0px; white-space: normal; background-color: rgb(255, 255, 255); text-decoration-thickness: initial; text-decoration-style: initial; text-decoration-color: initial;&quot;&gt;&lt;code style=&quot;font-size: 0.875em; font-weight: var(--ds-font-weight-strong); font-family: var(--ds-font-family-code); background-color: var(--ds-md-inline-code-color,#ececec); border-radius: 4px; padding: 0.15rem 0.3rem;&quot;&gt;/api/weather/autocomplete&lt;/code&gt;&lt;/strong&gt;" style="text;whiteSpace=wrap;html=1;" parent="1" vertex="1">
          <mxGeometry x="960" y="382.5" width="170" height="40" as="geometry" />
        </mxCell>
        <mxCell id="k9w2KrqP_cFV43fhyjE5-23" value="&lt;strong style=&quot;font-weight: 600; color: rgb(64, 64, 64); font-family: quote-cjk-patch, Inter, system-ui, -apple-system, BlinkMacSystemFont, &amp;quot;Segoe UI&amp;quot;, Roboto, &amp;quot;Noto Sans&amp;quot;, Ubuntu, Cantarell, &amp;quot;Helvetica Neue&amp;quot;, Oxygen, &amp;quot;Open Sans&amp;quot;, sans-serif; font-size: 16.002px; font-style: normal; font-variant-ligatures: normal; font-variant-caps: normal; letter-spacing: normal; orphans: 2; text-align: left; text-indent: 0px; text-transform: none; widows: 2; word-spacing: 0px; -webkit-text-stroke-width: 0px; white-space: normal; background-color: rgb(255, 255, 255); text-decoration-thickness: initial; text-decoration-style: initial; text-decoration-color: initial;&quot;&gt;&lt;code style=&quot;font-size: 0.875em; font-weight: var(--ds-font-weight-strong); font-family: var(--ds-font-family-code); background-color: var(--ds-md-inline-code-color,#ececec); border-radius: 4px; padding: 0.15rem 0.3rem;&quot;&gt;/api/search/stats&lt;/code&gt;&lt;/strong&gt;" style="text;whiteSpace=wrap;html=1;" parent="1" vertex="1">
          <mxGeometry x="960" y="570" width="160" height="40" as="geometry" />
        </mxCell>
        <mxCell id="k9w2KrqP_cFV43fhyjE5-36" style="edgeStyle=orthogonalEdgeStyle;rounded=0;orthogonalLoop=1;jettySize=auto;html=1;entryX=0;entryY=0.5;entryDx=0;entryDy=0;" parent="1" source="k9w2KrqP_cFV43fhyjE5-24" target="k9w2KrqP_cFV43fhyjE5-35" edge="1">
          <mxGeometry relative="1" as="geometry" />
        </mxCell>
        <mxCell id="k9w2KrqP_cFV43fhyjE5-24" value="Эндпоинт search-stats возвращает города и количество их запросов." style="text;html=1;align=left;verticalAlign=middle;whiteSpace=wrap;rounded=0;" parent="1" vertex="1">
          <mxGeometry x="1165" y="547.5" width="180" height="85" as="geometry" />
        </mxCell>
        <mxCell id="k9w2KrqP_cFV43fhyjE5-25" value="&lt;strong style=&quot;font-weight: 600; color: rgb(64, 64, 64); font-family: quote-cjk-patch, Inter, system-ui, -apple-system, BlinkMacSystemFont, &amp;quot;Segoe UI&amp;quot;, Roboto, &amp;quot;Noto Sans&amp;quot;, Ubuntu, Cantarell, &amp;quot;Helvetica Neue&amp;quot;, Oxygen, &amp;quot;Open Sans&amp;quot;, sans-serif; font-size: 16.002px; font-style: normal; font-variant-ligatures: normal; font-variant-caps: normal; letter-spacing: normal; orphans: 2; text-align: left; text-indent: 0px; text-transform: none; widows: 2; word-spacing: 0px; -webkit-text-stroke-width: 0px; white-space: normal; background-color: rgb(255, 255, 255); text-decoration-thickness: initial; text-decoration-style: initial; text-decoration-color: initial;&quot;&gt;&lt;code style=&quot;font-size: 0.875em; font-weight: var(--ds-font-weight-strong); font-family: var(--ds-font-family-code); background-color: var(--ds-md-inline-code-color,#ececec); border-radius: 4px; padding: 0.15rem 0.3rem;&quot;&gt;/api/weather/weather&lt;/code&gt;&lt;/strong&gt;" style="text;whiteSpace=wrap;html=1;" parent="1" vertex="1">
          <mxGeometry x="960" y="497.5" width="220" height="40" as="geometry" />
        </mxCell>
        <mxCell id="k9w2KrqP_cFV43fhyjE5-34" style="edgeStyle=orthogonalEdgeStyle;rounded=0;orthogonalLoop=1;jettySize=auto;html=1;entryX=0;entryY=0.5;entryDx=0;entryDy=0;" parent="1" source="k9w2KrqP_cFV43fhyjE5-26" target="k9w2KrqP_cFV43fhyjE5-33" edge="1">
          <mxGeometry relative="1" as="geometry" />
        </mxCell>
        <mxCell id="k9w2KrqP_cFV43fhyjE5-26" value="Эндпоинт weather, делает запрос в openmeteo, получает информацию о погоде." style="text;html=1;align=left;verticalAlign=middle;whiteSpace=wrap;rounded=0;" parent="1" vertex="1">
          <mxGeometry x="1165" y="467.5" width="180" height="70" as="geometry" />
        </mxCell>
        <mxCell id="k9w2KrqP_cFV43fhyjE5-27" value="&lt;strong style=&quot;font-weight: 600; color: rgb(64, 64, 64); font-family: quote-cjk-patch, Inter, system-ui, -apple-system, BlinkMacSystemFont, &amp;quot;Segoe UI&amp;quot;, Roboto, &amp;quot;Noto Sans&amp;quot;, Ubuntu, Cantarell, &amp;quot;Helvetica Neue&amp;quot;, Oxygen, &amp;quot;Open Sans&amp;quot;, sans-serif; font-size: 16.002px; font-style: normal; font-variant-ligatures: normal; font-variant-caps: normal; letter-spacing: normal; orphans: 2; text-align: left; text-indent: 0px; text-transform: none; widows: 2; word-spacing: 0px; -webkit-text-stroke-width: 0px; white-space: normal; background-color: rgb(255, 255, 255); text-decoration-thickness: initial; text-decoration-style: initial; text-decoration-color: initial;&quot;&gt;&lt;code style=&quot;font-size: 0.875em; font-weight: var(--ds-font-weight-strong); font-family: var(--ds-font-family-code); background-color: var(--ds-md-inline-code-color,#ececec); border-radius: 4px; padding: 0.15rem 0.3rem;&quot;&gt;/api/search/history&lt;/code&gt;&lt;/strong&gt;" style="text;whiteSpace=wrap;html=1;" parent="1" vertex="1">
          <mxGeometry x="960" y="652.5" width="170" height="40" as="geometry" />
        </mxCell>
        <mxCell id="k9w2KrqP_cFV43fhyjE5-38" style="edgeStyle=orthogonalEdgeStyle;rounded=0;orthogonalLoop=1;jettySize=auto;html=1;entryX=0;entryY=0.5;entryDx=0;entryDy=0;" parent="1" source="k9w2KrqP_cFV43fhyjE5-28" target="k9w2KrqP_cFV43fhyjE5-37" edge="1">
          <mxGeometry relative="1" as="geometry" />
        </mxCell>
        <mxCell id="k9w2KrqP_cFV43fhyjE5-28" value="Эндпоинт history возвращает города, которые пользователь искал ранее." style="text;html=1;align=left;verticalAlign=middle;whiteSpace=wrap;rounded=0;" parent="1" vertex="1">
          <mxGeometry x="1165" y="638.5" width="180" height="67.5" as="geometry" />
        </mxCell>
        <mxCell id="k9w2KrqP_cFV43fhyjE5-29" value="SearchStat" style="swimlane;fontStyle=0;childLayout=stackLayout;horizontal=1;startSize=26;fillColor=none;horizontalStack=0;resizeParent=1;resizeParentMax=0;resizeLast=0;collapsible=1;marginBottom=0;whiteSpace=wrap;html=1;" parent="1" vertex="1">
          <mxGeometry x="1160" y="120" width="140" height="78" as="geometry" />
        </mxCell>
        <mxCell id="k9w2KrqP_cFV43fhyjE5-30" value="city:&amp;nbsp;&lt;span style=&quot;text-align: center;&quot;&gt;CityCached&lt;/span&gt;" style="text;strokeColor=none;fillColor=none;align=left;verticalAlign=top;spacingLeft=4;spacingRight=4;overflow=hidden;rotatable=0;points=[[0,0.5],[1,0.5]];portConstraint=eastwest;whiteSpace=wrap;html=1;" parent="k9w2KrqP_cFV43fhyjE5-29" vertex="1">
          <mxGeometry y="26" width="140" height="26" as="geometry" />
        </mxCell>
        <mxCell id="k9w2KrqP_cFV43fhyjE5-31" value="count: int" style="text;strokeColor=none;fillColor=none;align=left;verticalAlign=top;spacingLeft=4;spacingRight=4;overflow=hidden;rotatable=0;points=[[0,0.5],[1,0.5]];portConstraint=eastwest;whiteSpace=wrap;html=1;" parent="k9w2KrqP_cFV43fhyjE5-29" vertex="1">
          <mxGeometry y="52" width="140" height="26" as="geometry" />
        </mxCell>
        <mxCell id="k9w2KrqP_cFV43fhyjE5-33" value="Добавляет&amp;nbsp; SearchHistory.&lt;div&gt;Изменяет/добавляет SearchStat&lt;/div&gt;" style="html=1;whiteSpace=wrap;" parent="1" vertex="1">
          <mxGeometry x="1396" y="477.5" width="150" height="50" as="geometry" />
        </mxCell>
        <mxCell id="k9w2KrqP_cFV43fhyjE5-35" value="Выводит SearchStat" style="html=1;whiteSpace=wrap;" parent="1" vertex="1">
          <mxGeometry x="1396" y="565" width="150" height="50" as="geometry" />
        </mxCell>
        <mxCell id="k9w2KrqP_cFV43fhyjE5-37" value="Выводит SearchHistory" style="html=1;whiteSpace=wrap;" parent="1" vertex="1">
          <mxGeometry x="1396" y="647.5" width="150" height="50" as="geometry" />
        </mxCell>
        <mxCell id="k9w2KrqP_cFV43fhyjE5-39" value="Возвращает список из CityCached, если там такого нет, делает запрос в openmeteo, снова хешируя в CityCached" style="html=1;whiteSpace=wrap;" parent="1" vertex="1">
          <mxGeometry x="1410" y="361.25" width="194" height="62.5" as="geometry" />
        </mxCell>
        <mxCell id="k9w2KrqP_cFV43fhyjE5-41" value="CityCached" style="swimlane;fontStyle=0;childLayout=stackLayout;horizontal=1;startSize=26;fillColor=none;horizontalStack=0;resizeParent=1;resizeParentMax=0;resizeLast=0;collapsible=1;marginBottom=0;whiteSpace=wrap;html=1;" parent="1" vertex="1">
          <mxGeometry x="1349" y="120" width="140" height="130" as="geometry" />
        </mxCell>
        <mxCell id="k9w2KrqP_cFV43fhyjE5-42" value="name: str" style="text;strokeColor=none;fillColor=none;align=left;verticalAlign=top;spacingLeft=4;spacingRight=4;overflow=hidden;rotatable=0;points=[[0,0.5],[1,0.5]];portConstraint=eastwest;whiteSpace=wrap;html=1;" parent="k9w2KrqP_cFV43fhyjE5-41" vertex="1">
          <mxGeometry y="26" width="140" height="26" as="geometry" />
        </mxCell>
        <mxCell id="k9w2KrqP_cFV43fhyjE5-43" value="&lt;pre style=&quot;font-family: var(--ds-font-family-code); overflow: auto; padding: calc(var(--ds-md-zoom)*8px)calc(var(--ds-md-zoom)*12px); text-wrap-mode: wrap; word-break: break-all; color: rgb(73, 73, 73); font-size: 12.573px; margin-top: 0px !important; margin-bottom: 0px !important;&quot;&gt;latitude: float&lt;/pre&gt;" style="text;strokeColor=none;fillColor=none;align=left;verticalAlign=top;spacingLeft=4;spacingRight=4;overflow=hidden;rotatable=0;points=[[0,0.5],[1,0.5]];portConstraint=eastwest;whiteSpace=wrap;html=1;" parent="k9w2KrqP_cFV43fhyjE5-41" vertex="1">
          <mxGeometry y="52" width="140" height="26" as="geometry" />
        </mxCell>
        <mxCell id="k9w2KrqP_cFV43fhyjE5-44" value="&lt;pre style=&quot;font-family: var(--ds-font-family-code); overflow: auto; padding: calc(var(--ds-md-zoom)*8px)calc(var(--ds-md-zoom)*12px); text-wrap-mode: wrap; word-break: break-all; color: rgb(73, 73, 73); font-size: 12.573px; margin-top: 0px !important; margin-bottom: 0px !important;&quot;&gt;longitude: float&lt;/pre&gt;" style="text;strokeColor=none;fillColor=none;align=left;verticalAlign=top;spacingLeft=4;spacingRight=4;overflow=hidden;rotatable=0;points=[[0,0.5],[1,0.5]];portConstraint=eastwest;whiteSpace=wrap;html=1;" parent="k9w2KrqP_cFV43fhyjE5-41" vertex="1">
          <mxGeometry y="78" width="140" height="26" as="geometry" />
        </mxCell>
        <mxCell id="k9w2KrqP_cFV43fhyjE5-45" value="&lt;pre style=&quot;font-family: var(--ds-font-family-code); overflow: auto; padding: calc(var(--ds-md-zoom)*8px)calc(var(--ds-md-zoom)*12px); text-wrap-mode: wrap; word-break: break-all; color: rgb(73, 73, 73); font-size: 12.573px; margin-top: 0px !important; margin-bottom: 0px !important;&quot;&gt;country: str&lt;/pre&gt;" style="text;strokeColor=none;fillColor=none;align=left;verticalAlign=top;spacingLeft=4;spacingRight=4;overflow=hidden;rotatable=0;points=[[0,0.5],[1,0.5]];portConstraint=eastwest;whiteSpace=wrap;html=1;" parent="k9w2KrqP_cFV43fhyjE5-41" vertex="1">
          <mxGeometry y="104" width="140" height="26" as="geometry" />
        </mxCell>
      </root>
    </mxGraphModel>
  </diagram>
</mxfile>
